<svg xmlns="http://www.w3.org/2000/svg" width="64.233" height="64.232" viewBox="0 0 64.233 64.232"><defs><style>.a{fill:none;stroke:#0e60a4;stroke-miterlimit:10;stroke-width:3px;}</style></defs><g transform="translate(-393.114 -634.55)"><path class="a" d="M455.847,680.947"/><path class="a" d="M455.847,680.947V687.1a10.178,10.178,0,0,1-10.178,10.178H404.792A10.178,10.178,0,0,1,394.614,687.1V646.228a10.178,10.178,0,0,1,10.178-10.178h40.877a10.178,10.178,0,0,1,10.178,10.178V676.7"/><path class="a" d="M436.461,661.385a11.231,11.231,0,1,1-11.231-11.231A11.231,11.231,0,0,1,436.461,661.385Z"/><path class="a" d="M402.513,697.257a23.467,23.467,0,1,1,46.935,0"/></g></svg>