<svg xmlns="http://www.w3.org/2000/svg" width="64.233" height="64.232" viewBox="0 0 64.233 64.232"><defs><style>.a{fill:none;stroke:#0e60a4;stroke-miterlimit:10;stroke-width:3px;}.b{fill:#125b98;}</style></defs><g transform="translate(-68.114 -638.5)"><path class="a" d="M130.847,684.9"/><path class="a" d="M130.847,684.9v6.158a10.177,10.177,0,0,1-10.178,10.177H79.792a10.177,10.177,0,0,1-10.178-10.177V650.178A10.178,10.178,0,0,1,79.792,640h40.877a10.178,10.178,0,0,1,10.178,10.178v30.469"/><path class="a" d="M91.148,662.6s1.46-8.668,9.73-9.334,8.435,9.334,8.435,9.334l-8.435,10.616V680.1"/><path class="b" d="M102.715,687.162a2.242,2.242,0,1,1-2.242-2.242A2.242,2.242,0,0,1,102.715,687.162Z"/></g></svg>